<?xml version="1.0" standalone="no"?>
<!DOCTYPE svg PUBLIC "-//W3C//DTD SVG 20010904//EN"
 "http://www.w3.org/TR/2001/REC-SVG-20010904/DTD/svg10.dtd">
<svg version="1.0" xmlns="http://www.w3.org/2000/svg"
 width="2700.000000pt" height="1590.000000pt" viewBox="0 0 2700.000000 1590.000000"
 preserveAspectRatio="xMidYMid meet">

<g transform="translate(0.000000,1590.000000) scale(0.100000,-0.100000)"
fill="#000000" stroke="none">
<path d="M0 13905 l0 -1995 13500 0 13500 0 0 1995 0 1995 -13500 0 -13500 0
0 -1995z m2959 1494 c548 -56 1046 -433 1250 -946 69 -174 92 -286 98 -473 8
-240 -16 -391 -94 -589 -77 -195 -178 -347 -343 -511 -324 -324 -753 -481
-1226 -449 -380 26 -725 183 -997 454 -448 446 -562 1118 -284 1672 247 490
725 807 1287 852 100 8 157 6 309 -10z m14599 -311 c45 -30 93 -115 95 -169 2
-32 1 -32 -73 -51 -72 -19 -75 -19 -85 -2 -20 36 -64 74 -85 74 -35 0 -78 -28
-97 -63 -15 -26 -18 -57 -18 -162 0 -145 11 -182 65 -210 39 -20 66 -19 117 6
38 18 43 25 43 55 l0 34 -55 0 -55 0 0 85 0 85 130 0 130 0 0 -164 0 -164 -55
-50 c-63 -58 -124 -82 -208 -82 -88 0 -135 18 -187 70 -137 136 -145 484 -15
654 15 19 50 47 78 61 47 24 61 26 143 23 79 -3 97 -8 132 -30z m780 0 c45
-30 93 -115 95 -169 2 -32 1 -32 -73 -51 -72 -19 -75 -19 -85 -2 -20 36 -64
74 -85 74 -35 0 -78 -28 -97 -63 -15 -26 -18 -57 -18 -162 0 -145 11 -182 65
-210 39 -20 66 -19 117 6 38 18 43 25 43 55 l0 34 -55 0 -55 0 0 85 0 85 130
0 130 0 0 -164 0 -164 -55 -50 c-63 -58 -124 -82 -208 -82 -88 0 -135 18 -187
70 -137 136 -145 484 -15 654 15 19 50 47 78 61 47 24 61 26 143 23 79 -3 97
-8 132 -30z m716 21 c51 -14 120 -80 150 -143 59 -126 62 -360 6 -491 -25 -58
-86 -124 -135 -146 -47 -22 -139 -25 -199 -7 -59 18 -128 90 -155 164 -67 179
-44 433 51 548 60 74 176 104 282 75z m-11412 -138 l3 -139 80 139 80 138 113
1 c61 0 112 -2 112 -5 0 -3 -43 -70 -96 -149 l-95 -143 100 -240 c56 -131 101
-242 101 -246 0 -4 -47 -7 -104 -7 l-104 0 -53 155 c-30 85 -57 155 -60 155
-3 0 -23 -27 -43 -59 -35 -57 -36 -62 -36 -155 l0 -96 -90 0 -90 0 0 395 0
395 90 0 89 0 3 -139z m1039 -246 c54 -209 99 -386 99 -392 0 -10 -24 -13 -89
-13 l-89 0 -12 65 -12 65 -93 0 -93 0 -11 -50 c-6 -28 -11 -58 -11 -65 0 -12
-18 -15 -90 -15 -49 0 -90 2 -90 4 0 2 45 178 100 390 55 212 100 388 100 391
0 3 43 4 96 3 l97 -3 98 -380z m699 369 c130 -52 135 -334 7 -409 -25 -15 -27
-19 -14 -27 27 -14 63 -86 106 -207 23 -63 41 -118 41 -123 0 -5 -43 -7 -96
-6 l-96 3 -54 145 c-30 80 -62 151 -71 158 -40 29 -43 19 -43 -148 l0 -160
-90 0 -90 0 0 395 0 395 180 0 c142 0 188 -3 220 -16z m810 -74 l0 -90 -85 0
-85 0 0 -305 0 -305 -85 0 -85 0 0 305 0 305 -90 0 -90 0 0 90 0 90 260 0 260
0 0 -90z m400 -182 c0 -252 2 -275 19 -305 34 -55 100 -54 139 4 15 24 17 60
20 300 l3 273 85 0 85 0 -3 -292 c-3 -273 -5 -297 -25 -346 -47 -116 -109
-161 -221 -162 -92 0 -148 17 -187 57 -79 81 -95 168 -95 502 l0 241 90 0 90
0 0 -272z m1480 182 l0 -90 -85 0 -85 0 0 -305 0 -305 -85 0 -85 0 0 305 0
305 -90 0 -90 0 0 90 0 90 260 0 260 0 0 -90z m611 -295 c54 -209 99 -386 99
-392 0 -10 -24 -13 -89 -13 l-89 0 -12 65 -12 65 -93 0 -93 0 -11 -50 c-6 -28
-11 -58 -11 -65 0 -12 -18 -15 -90 -15 -49 0 -90 2 -90 4 0 2 45 178 100 390
55 212 100 388 100 391 0 3 43 4 96 3 l97 -3 98 -380z m565 173 l99 -211 3
211 2 212 80 0 80 0 0 -395 0 -395 -83 0 -82 0 -97 208 -98 207 0 -207 0 -208
-85 0 -85 0 0 395 0 395 83 0 84 0 99 -212z m870 196 c54 -26 102 -90 127
-169 18 -59 22 -93 22 -215 0 -166 -15 -232 -68 -301 -58 -77 -79 -84 -269
-87 l-168 -4 0 396 0 396 161 0 c128 0 168 -3 195 -16z m795 -369 c54 -209 99
-386 99 -392 0 -10 -24 -13 -89 -13 l-89 0 -12 65 -12 65 -93 0 -93 0 -11 -50
c-6 -28 -11 -58 -11 -65 0 -12 -18 -15 -90 -15 -49 0 -90 2 -90 4 0 2 45 178
100 390 55 212 100 388 100 391 0 3 43 4 96 3 l97 -3 98 -380z m1140 0 c54
-209 99 -386 99 -392 0 -10 -24 -13 -89 -13 l-89 0 -12 65 -12 65 -93 0 -93 0
-11 -50 c-6 -28 -11 -58 -11 -65 0 -12 -18 -15 -90 -15 -49 0 -90 2 -90 4 0 2
45 178 100 390 55 212 100 388 100 391 0 3 43 4 96 3 l97 -3 98 -380z m565
173 l99 -211 3 211 2 212 80 0 80 0 0 -395 0 -395 -83 0 -82 0 -97 208 -98
207 0 -207 0 -208 -85 0 -85 0 0 395 0 395 83 0 84 0 99 -212z m3324 122 l0
-90 -85 0 -85 0 0 -305 0 -305 -85 0 -85 0 0 305 0 305 -90 0 -90 0 0 90 0 90
260 0 260 0 0 -90z m601 -295 c54 -209 99 -386 99 -392 0 -10 -24 -13 -89 -13
l-89 0 -12 65 -12 65 -93 0 -93 0 -11 -50 c-6 -28 -11 -58 -11 -65 0 -12 -18
-15 -90 -15 -49 0 -90 2 -90 4 0 2 45 178 100 390 55 212 100 388 100 391 0 3
43 4 96 3 l97 -3 98 -380z m-12673 -1197 c45 -30 93 -115 95 -169 2 -32 1 -32
-73 -51 -72 -19 -75 -19 -85 -2 -20 36 -64 74 -85 74 -35 0 -78 -28 -97 -63
-15 -26 -18 -57 -18 -162 0 -145 11 -182 65 -210 39 -20 66 -19 117 6 38 18
43 25 43 55 l0 34 -55 0 -55 0 0 85 0 85 130 0 130 0 0 -164 0 -164 -55 -50
c-63 -58 -124 -82 -208 -82 -88 0 -135 18 -187 70 -137 136 -145 484 -15 654
15 19 50 47 78 61 47 24 61 26 143 23 79 -3 97 -8 132 -30z m5672 10 c56 -29
98 -94 106 -165 l6 -50 -53 -6 c-100 -12 -105 -11 -117 32 -23 75 -122 81
-122 7 0 -40 9 -48 80 -71 168 -54 230 -126 230 -267 0 -76 -23 -147 -65 -195
-48 -56 -103 -76 -197 -71 -93 4 -143 29 -181 89 -27 45 -60 168 -48 181 3 4
40 10 81 13 l75 7 15 -48 c18 -57 56 -90 93 -80 39 9 57 33 57 76 0 44 -26 71
-88 91 -165 53 -242 162 -213 300 27 126 93 178 226 179 54 0 81 -5 115 -22z
m5315 3 c67 -30 131 -126 138 -203 2 -28 -2 -32 -48 -48 -99 -34 -90 -35 -110
15 -13 35 -26 51 -52 63 -31 15 -37 15 -61 2 -55 -31 -67 -71 -67 -220 0 -117
3 -140 20 -169 44 -74 130 -61 159 25 9 26 16 56 16 67 0 22 2 21 97 -21 58
-26 61 -28 56 -57 -11 -59 -46 -137 -76 -171 -46 -54 -95 -74 -174 -74 -111 1
-175 41 -227 146 -37 73 -50 144 -50 264 0 201 60 335 174 384 49 21 155 20
205 -3z m1988 -110 c-72 -290 -67 -573 16 -840 l19 -61 -49 0 c-46 0 -50 2
-68 38 -34 67 -81 213 -96 300 -38 215 -3 456 91 645 24 46 25 47 72 47 l48 0
-33 -129z m1637 107 c56 -29 98 -94 106 -165 l6 -50 -53 -6 c-100 -12 -105
-11 -117 32 -23 75 -122 81 -122 7 0 -40 9 -48 80 -71 168 -54 230 -126 230
-267 0 -76 -23 -147 -65 -195 -48 -56 -103 -76 -197 -71 -93 4 -143 29 -181
89 -27 45 -60 168 -48 181 3 4 40 10 81 13 l75 7 15 -48 c18 -57 56 -90 93
-80 39 9 57 33 57 76 0 44 -26 71 -88 91 -165 53 -242 162 -213 300 27 126 93
178 226 179 54 0 81 -5 115 -22z m987 -54 c103 -224 121 -511 46 -749 -14 -44
-38 -108 -54 -142 l-28 -63 -49 0 -49 0 29 102 c74 265 75 521 4 801 l-33 127
49 0 49 0 36 -76z m-18407 -219 c0 -309 -6 -359 -50 -429 -38 -59 -90 -86
-167 -86 -76 1 -134 27 -167 77 -25 38 -56 137 -56 179 0 23 11 27 133 49 l37
7 0 -45 c0 -85 64 -117 89 -45 7 19 11 134 11 304 l0 274 85 0 85 0 0 -285z
m571 -100 c54 -209 99 -386 99 -392 0 -10 -24 -13 -89 -13 l-89 0 -12 65 -12
65 -93 0 -93 0 -11 -50 c-6 -28 -11 -58 -11 -65 0 -12 -18 -15 -90 -15 -49 0
-90 2 -90 4 0 2 45 178 100 390 55 212 100 388 100 391 0 3 43 4 96 3 l97 -3
98 -380z m579 369 c130 -52 135 -334 7 -409 -25 -15 -27 -19 -14 -27 27 -14
63 -86 106 -207 23 -63 41 -118 41 -123 0 -5 -43 -7 -96 -6 l-96 3 -54 145
c-30 80 -62 151 -71 158 -40 29 -43 19 -43 -148 l0 -160 -90 0 -90 0 0 395 0
395 180 0 c142 0 188 -3 220 -16z m410 -379 l0 -395 -85 0 -85 0 0 395 0 395
85 0 85 0 0 -395z m416 183 l99 -211 3 211 2 212 80 0 80 0 0 -395 0 -395 -83
0 -82 0 -97 208 -98 207 0 -207 0 -208 -85 0 -85 0 0 395 0 395 83 0 84 0 99
-212z m1515 -173 c54 -209 99 -386 99 -392 0 -10 -24 -13 -89 -13 l-89 0 -12
65 -12 65 -93 0 -93 0 -11 -50 c-6 -28 -11 -58 -11 -65 0 -12 -18 -15 -90 -15
-49 0 -90 2 -90 4 0 2 45 178 100 390 55 212 100 388 100 391 0 3 43 4 96 3
l97 -3 98 -380z m445 173 l99 -211 3 211 2 212 80 0 80 0 0 -395 0 -395 -83 0
-82 0 -97 208 -98 207 0 -207 0 -208 -85 0 -85 0 0 395 0 395 83 0 84 0 99
-212z m1135 -173 c54 -209 99 -386 99 -392 0 -10 -24 -13 -89 -13 l-89 0 -12
65 -12 65 -93 0 -93 0 -11 -50 c-6 -28 -11 -58 -11 -65 0 -12 -18 -15 -90 -15
-49 0 -90 2 -90 4 0 2 45 178 100 390 55 212 100 388 100 391 0 3 43 4 96 3
l97 -3 98 -380z m455 173 l99 -211 3 211 2 212 80 0 80 0 0 -395 0 -395 -83 0
-82 0 -97 208 -98 207 0 -207 0 -208 -85 0 -85 0 0 395 0 395 83 0 84 0 99
-212z m864 122 l0 -90 -140 0 -140 0 0 -60 0 -60 130 0 130 0 0 -80 0 -80
-130 0 -130 0 0 -75 0 -75 145 0 145 0 0 -90 0 -90 -235 0 -235 0 0 395 0 395
230 0 230 0 0 -90z m300 -182 c0 -252 2 -275 19 -305 34 -55 100 -54 139 4 15
24 17 60 20 300 l3 273 85 0 85 0 -3 -292 c-3 -273 -5 -297 -25 -346 -47 -116
-109 -161 -221 -162 -92 0 -148 17 -187 57 -79 81 -95 168 -95 502 l0 241 90
0 90 0 0 -272z m672 133 l3 -139 80 139 80 138 113 1 c61 0 112 -2 112 -5 0
-3 -43 -70 -96 -149 l-95 -143 100 -240 c56 -131 101 -242 101 -246 0 -4 -47
-7 -104 -7 l-104 0 -53 155 c-30 85 -57 155 -60 155 -3 0 -23 -27 -43 -59 -35
-57 -36 -62 -36 -155 l0 -96 -90 0 -90 0 0 395 0 395 90 0 89 0 3 -139z m1551
12 c27 -68 52 -121 56 -119 4 3 29 59 56 125 l49 121 93 0 c51 0 93 -2 93 -5
0 -3 -47 -109 -105 -235 l-105 -228 0 -161 0 -161 -85 0 -85 0 0 165 0 165
-101 217 c-55 120 -103 224 -106 231 -4 10 16 12 92 10 l98 -3 50 -122z m617
-145 c0 -252 2 -275 19 -305 34 -55 100 -54 139 4 15 24 17 60 20 300 l3 273
85 0 85 0 -3 -292 c-3 -273 -5 -297 -25 -346 -47 -116 -109 -161 -221 -162
-92 0 -148 17 -187 57 -79 81 -95 168 -95 502 l0 241 90 0 90 0 0 -272z m670
137 l0 -135 90 0 90 0 0 135 0 135 85 0 85 0 0 -395 0 -395 -85 0 -85 0 0 160
0 160 -90 0 -90 0 0 -160 0 -160 -90 0 -90 0 0 395 0 395 90 0 90 0 0 -135z
m921 -250 c54 -209 99 -386 99 -392 0 -10 -24 -13 -89 -13 l-89 0 -12 65 -12
65 -93 0 -93 0 -11 -50 c-6 -28 -11 -58 -11 -65 0 -12 -18 -15 -90 -15 -49 0
-90 2 -90 4 0 2 45 178 100 390 55 212 100 388 100 391 0 3 43 4 96 3 l97 -3
98 -380z m545 369 c54 -26 102 -90 127 -169 18 -59 22 -93 22 -215 0 -166 -15
-232 -68 -301 -58 -77 -79 -84 -269 -87 l-168 -4 0 396 0 396 161 0 c128 0
168 -3 195 -16z m675 -369 c54 -209 99 -386 99 -392 0 -10 -24 -13 -89 -13
l-89 0 -12 65 -12 65 -93 0 -93 0 -11 -50 c-6 -28 -11 -58 -11 -65 0 -12 -18
-15 -90 -15 -49 0 -90 2 -90 4 0 2 45 178 100 390 55 212 100 388 100 391 0 3
43 4 96 3 l97 -3 98 -380z m920 0 c54 -209 99 -386 99 -392 0 -10 -24 -13 -89
-13 l-89 0 -12 65 -12 65 -93 0 -93 0 -11 -50 c-6 -28 -11 -58 -11 -65 0 -12
-18 -15 -90 -15 -49 0 -90 2 -90 4 0 2 45 178 100 390 55 212 100 388 100 391
0 3 43 4 96 3 l97 -3 98 -380z m1259 295 l0 -90 -140 0 -140 0 0 -60 0 -60
130 0 130 0 0 -80 0 -80 -130 0 -130 0 0 -75 0 -75 145 0 145 0 0 -90 0 -90
-235 0 -235 0 0 395 0 395 230 0 230 0 0 -90z m300 -45 l0 -135 90 0 90 0 0
135 0 135 85 0 85 0 0 -395 0 -395 -85 0 -85 0 0 160 0 160 -90 0 -90 0 0
-160 0 -160 -90 0 -90 0 0 395 0 395 90 0 90 0 0 -135z m1510 -150 c0 -309 -6
-359 -50 -429 -38 -59 -90 -86 -167 -86 -76 1 -134 27 -167 77 -25 38 -56 137
-56 179 0 23 11 27 133 49 l37 7 0 -45 c0 -85 64 -117 89 -45 7 19 11 134 11
304 l0 274 85 0 85 0 0 -285z m571 -100 c54 -209 99 -386 99 -392 0 -10 -24
-13 -89 -13 l-89 0 -12 65 -12 65 -93 0 -93 0 -11 -50 c-6 -28 -11 -58 -11
-65 0 -12 -18 -15 -90 -15 -49 0 -90 2 -90 4 0 2 45 178 100 390 55 212 100
388 100 391 0 3 43 4 96 3 l97 -3 98 -380z m1210 0 c54 -209 99 -386 99 -392
0 -10 -24 -13 -89 -13 l-89 0 -12 65 -12 65 -93 0 -93 0 -11 -50 c-6 -28 -11
-58 -11 -65 0 -12 -18 -15 -90 -15 -49 0 -90 2 -90 4 0 2 45 178 100 390 55
212 100 388 100 391 0 3 43 4 96 3 l97 -3 98 -380z"/>
<path d="M2627 15379 c-450 -37 -859 -268 -1121 -633 -240 -334 -322 -773
-221 -1178 120 -476 498 -877 981 -1037 177 -59 287 -76 504 -75 161 1 212 5
294 23 483 105 867 395 1070 806 90 182 127 316 145 524 28 313 -56 630 -241
912 -81 123 -269 312 -397 397 -161 108 -350 190 -537 231 -76 17 -333 45
-369 40 -5 -1 -54 -5 -108 -10z m438 -69 c730 -156 1235 -809 1167 -1510 -20
-198 -52 -312 -142 -495 -195 -397 -574 -681 -1040 -782 -134 -29 -448 -26
-595 5 -287 61 -539 197 -745 401 -170 169 -279 343 -349 557 -274 836 282
1701 1183 1839 131 20 391 13 521 -15z"/>
<path d="M2525 15294 c-49 -7 -141 -30 -204 -50 -507 -159 -869 -550 -978
-1057 -25 -117 -25 -418 0 -537 56 -260 176 -486 360 -677 118 -122 231 -207
376 -282 419 -215 893 -224 1320 -25 404 189 702 567 788 1002 24 121 23 384
-1 506 -110 553 -544 984 -1113 1107 -130 27 -417 35 -548 13z m178 -162 c4
-47 2 -66 -10 -77 -37 -37 -59 -12 -68 79 -6 56 -5 68 6 64 9 -3 16 -26 19
-63 3 -38 10 -60 19 -63 12 -4 13 7 8 60 -6 63 -1 87 14 71 3 -5 9 -36 12 -71z
m47 46 c1 -35 5 -32 36 19 19 30 27 7 9 -27 -15 -29 -15 -35 -1 -71 19 -46 19
-49 6 -49 -6 0 -16 11 -22 25 -6 14 -15 25 -20 25 -4 0 -8 -11 -8 -25 0 -14
-4 -25 -10 -25 -6 0 -10 33 -10 80 0 47 4 80 10 80 6 0 10 -15 10 -32z m-160
8 c0 -7 -9 -16 -20 -19 -23 -6 -17 -37 6 -37 18 0 18 -14 0 -30 -19 -15 -10
-38 17 -42 33 -5 26 -23 -10 -26 -34 -3 -36 0 -48 73 -3 22 -8 48 -11 58 -4
11 2 20 18 26 33 14 48 13 48 -3z m348 2 c16 -16 15 -28 -3 -28 -8 0 -15 5
-15 10 0 6 -4 10 -10 10 -17 0 -11 -30 10 -57 11 -14 20 -33 20 -43 0 -9 -9
-25 -20 -35 -19 -17 -21 -17 -40 0 -21 19 -27 45 -10 45 6 0 13 -7 16 -15 4
-8 10 -15 15 -15 16 0 10 31 -11 57 -31 40 -21 83 20 83 9 0 21 -5 28 -12z
m62 -30 c1 -31 2 -32 15 -14 8 10 16 24 18 30 2 6 8 7 13 3 4 -4 -4 -32 -19
-63 -15 -30 -27 -61 -27 -69 0 -8 -6 -15 -12 -15 -9 0 -13 23 -14 80 -1 61 2
80 13 80 8 0 13 -12 13 -32z m-487 -62 c18 -75 15 -94 -11 -59 -47 62 -54 69
-47 48 14 -45 17 -75 7 -75 -6 0 -16 19 -23 43 -6 23 -16 54 -21 69 -17 47 13
68 34 23 14 -32 32 -33 24 -1 -6 24 3 42 14 29 4 -5 14 -39 23 -77z m587 63
c0 -6 -7 -36 -16 -66 -9 -30 -13 -57 -10 -61 11 -11 27 15 40 64 7 30 19 50
28 52 14 3 14 -4 -3 -60 -25 -80 -39 -96 -74 -80 -30 14 -31 21 -4 100 18 55
39 82 39 51z m-699 -83 c19 -36 30 -68 26 -73 -5 -4 -12 -1 -17 6 -10 17 -40
7 -40 -14 0 -36 -17 -10 -28 43 -17 82 -16 102 7 102 13 0 29 -20 52 -64z
m799 34 c-13 -24 -13 -50 0 -50 5 0 17 14 26 31 9 19 19 28 25 22 12 -12 -40
-143 -58 -143 -16 0 -16 2 -1 35 9 20 9 28 0 37 -9 9 -15 5 -24 -20 -11 -28
-38 -46 -38 -24 0 9 43 113 53 130 13 20 29 4 17 -18z m-925 -79 c41 -82 31
-103 -22 -47 -43 46 -51 46 -24 0 23 -39 26 -54 11 -54 -6 0 -25 29 -42 65
-25 51 -30 67 -20 77 9 9 18 5 42 -22 29 -35 42 -30 15 6 -17 22 -19 44 -5 44
5 0 25 -31 45 -69z m1060 48 c9 -13 -34 -149 -46 -149 -5 0 -9 6 -9 14 0 21
-20 30 -33 17 -14 -14 -27 -14 -27 0 0 19 86 129 101 129 4 0 11 -5 14 -11z
m95 -49 c25 -19 25 -19 7 -52 -10 -19 -28 -47 -41 -63 -21 -27 -27 -29 -52
-19 -16 5 -29 17 -28 25 1 19 71 129 81 129 5 0 19 -9 33 -20z m-1261 -47 c28
-32 51 -61 51 -66 0 -4 -11 -5 -25 -1 -20 5 -27 2 -33 -16 -10 -27 -20 -16
-51 58 -21 52 -22 82 -2 82 5 0 32 -26 60 -57z m-111 -5 c19 -19 14 -29 -13
-22 -14 3 -25 2 -25 -3 0 -14 60 -93 71 -93 14 0 10 26 -6 40 -18 15 -20 30
-4 30 13 0 48 -41 49 -57 0 -6 -10 -19 -22 -27 -21 -15 -24 -14 -51 12 -16 15
-38 42 -49 60 -19 32 -19 34 -3 52 21 23 36 25 53 8z m1467 -8 c7 -12 -62
-140 -76 -140 -5 0 -9 8 -9 18 0 26 -11 34 -27 20 -7 -6 -16 -8 -20 -4 -9 8
97 116 114 116 6 0 15 -4 18 -10z m-1511 -96 c55 -64 51 -88 -8 -48 -44 30
-56 27 -21 -6 24 -22 34 -50 18 -50 -11 0 -103 107 -103 119 0 16 23 14 46 -4
10 -8 26 -14 34 -15 9 0 11 3 5 8 -5 4 -19 17 -29 30 -15 17 -16 22 -4 22 8 0
36 -25 62 -56z m791 46 c-3 -5 -15 -10 -26 -10 -11 0 -34 -13 -50 -29 -58 -58
-28 -162 51 -177 16 -4 30 -10 30 -15 0 -16 -50 -10 -90 11 -89 45 -92 158 -7
210 33 21 103 28 92 10z m831 -45 c6 -15 -72 -135 -89 -135 -5 0 -6 11 -3 24
5 22 2 25 -25 28 l-32 3 59 47 c63 50 81 57 90 33z m-766 -27 c0 -11 8 -22 20
-25 11 -3 20 -9 20 -13 0 -5 -9 -12 -20 -15 -13 -4 -20 -15 -20 -31 0 -28 -12
-31 -31 -8 -8 10 -21 13 -36 9 -16 -4 -23 -1 -23 9 0 8 5 18 11 21 6 5 4 16
-7 32 -16 26 -16 26 10 21 17 -3 31 1 42 13 20 22 34 16 34 -13z m-941 -39
c48 -49 61 -69 44 -69 -10 0 -113 102 -113 112 0 18 20 5 69 -43z m1782 0 c20
-20 20 -22 3 -40 -19 -21 -42 -15 -24 6 8 10 8 15 0 20 -7 4 -28 -8 -48 -26
-20 -19 -38 -35 -40 -36 -2 -1 -1 -6 3 -12 4 -8 12 -8 26 -1 27 15 26 -11 -1
-28 -17 -10 -23 -9 -40 8 -16 16 -18 25 -10 39 11 22 89 91 102 91 4 0 17 -9
29 -21z m-1837 -16 c15 -14 40 -36 57 -49 19 -14 26 -25 19 -29 -6 -4 -19 0
-29 9 -18 16 -41 21 -41 9 0 -4 10 -17 22 -30 28 -30 16 -41 -16 -15 -49 38
-96 81 -96 88 0 13 33 44 45 44 7 0 24 -12 39 -27z m498 -35 c-7 -7 -12 -8
-12 -2 0 14 12 26 19 19 2 -3 -1 -11 -7 -17z m1400 -15 c19 -17 24 -43 8 -43
-5 0 -13 8 -19 17 -8 14 -12 15 -25 4 -10 -8 -14 -21 -10 -33 5 -16 2 -18 -18
-13 -31 7 -57 -10 -40 -27 16 -16 15 -28 -1 -28 -7 0 -18 10 -25 21 -12 18
-12 24 0 35 17 17 102 83 107 83 3 1 13 -6 23 -16z m-1947 -45 c64 -33 85 -60
43 -55 -20 2 -23 -2 -20 -28 3 -29 1 -28 -59 31 -55 55 -68 84 -38 84 5 0 39
-15 74 -32z m1995 -27 c0 -5 -12 -18 -27 -29 -25 -18 -26 -21 -10 -28 11 -4
25 0 38 12 14 12 23 14 30 7 8 -8 -7 -23 -52 -52 -35 -22 -70 -41 -76 -41 -21
0 -15 16 12 30 26 14 34 40 13 40 -7 0 -22 -7 -32 -15 -23 -18 -36 -19 -36 -5
0 10 117 90 133 90 4 0 7 -4 7 -9z m-2018 -71 c19 -16 28 -31 24 -38 -10 -16
-26 -15 -26 1 0 6 -25 28 -55 47 -65 41 -77 74 -15 39 22 -13 55 -35 72 -49z
m713 26 c31 -13 37 -19 25 -26 -8 -5 -23 -10 -32 -10 -24 0 -29 -14 -13 -36
13 -18 14 -18 9 2 -5 18 0 22 23 26 27 4 28 2 25 -32 -2 -29 -1 -32 8 -17 11
17 60 24 74 10 4 -4 23 -9 44 -10 20 -1 48 -11 63 -22 17 -13 30 -17 34 -11 8
13 95 13 95 0 0 -5 6 -10 14 -10 8 0 20 -13 28 -30 12 -28 25 -35 57 -30 21 3
71 -21 71 -35 0 -6 -9 -20 -20 -30 l-21 -19 26 -13 c25 -14 34 -33 15 -33 -6
0 -5 -8 2 -19 7 -11 16 -18 20 -15 10 6 48 -14 71 -38 18 -18 18 -20 -2 -64
l-22 -45 20 -44 c11 -26 16 -47 10 -50 -13 -9 -29 4 -29 23 -1 10 -6 4 -14
-13 -7 -16 -9 -31 -4 -33 12 -5 10 -46 -4 -60 -20 -20 -63 -14 -88 13 -18 19
-26 22 -33 13 -7 -10 -8 -9 -4 2 6 18 -18 55 -36 55 -7 0 -12 7 -13 15 -2 35
-5 40 -19 40 -9 0 -18 12 -22 30 -4 21 -13 32 -29 36 -14 4 -24 14 -24 24 0
23 -45 77 -70 85 -11 4 -20 12 -20 18 0 7 -14 18 -31 26 -18 8 -34 22 -36 32
-3 11 -14 19 -25 19 -15 0 -18 5 -13 21 6 18 4 20 -13 15 -17 -6 -21 0 -29 31
-8 33 -13 38 -37 36 -16 -1 -34 -10 -41 -20 -17 -23 -37 -6 -37 31 0 16 -6 26
-15 26 -7 0 -16 7 -19 15 -4 8 -11 15 -18 15 -12 0 -30 37 -40 83 -8 33 11 37
37 7 16 -20 37 -27 37 -13 0 4 -10 17 -22 30 l-22 24 34 -4 c19 -2 53 -11 75
-21z m-219 -98 c-3 -18 -36 -95 -72 -172 -53 -110 -67 -148 -68 -190 -1 -38
-5 -53 -18 -58 -12 -5 -18 -18 -18 -37 0 -16 -4 -33 -10 -36 -33 -20 12 197
65 313 27 59 116 212 123 212 3 0 2 -15 -2 -32z m971 -66 c77 -135 111 -231
137 -384 8 -46 -12 -53 -21 -7 -3 17 -12 33 -19 36 -9 3 -14 20 -14 43 0 49
-26 122 -94 259 -31 63 -56 120 -56 127 0 31 19 10 67 -74z m-419 71 c-16 -2
-40 -2 -55 0 -16 2 -3 4 27 4 30 0 43 -2 28 -4z m163 -10 c13 -17 13 -17 -6
-3 -11 8 -22 16 -24 17 -2 2 0 3 6 3 6 0 17 -8 24 -17z m-1160 -39 c-5 -48
-38 -100 -93 -148 -29 -25 -56 -46 -61 -46 -12 0 2 57 25 108 21 45 104 125
122 119 6 -2 9 -17 7 -33z m1116 30 c-3 -3 -12 -4 -19 -1 -8 3 -5 6 6 6 11 1
17 -2 13 -5z m-469 -127 c77 -62 177 -157 166 -157 -6 0 -26 16 -45 36 -18 20
-68 65 -111 100 -47 40 -80 76 -87 96 -16 47 -12 48 11 3 11 -22 41 -57 66
-78z m553 96 c13 -16 12 -17 -3 -4 -10 7 -18 15 -18 17 0 8 8 3 21 -13z m929
-18 c24 -22 26 -68 4 -86 -14 -11 -19 -10 -35 10 -15 18 -19 19 -19 7 0 -19
-25 -21 -37 -3 -5 8 -9 2 -13 -18 -4 -25 -10 -31 -37 -33 -33 -3 -63 25 -63
58 0 17 40 59 75 79 27 16 101 7 125 -14z m-2354 -42 c15 -22 19 -47 19 -118
0 -83 2 -90 20 -93 15 -2 29 10 50 44 47 75 146 137 130 82 -24 -79 -67 -126
-136 -149 -50 -17 -57 -26 -65 -75 -3 -24 -10 -46 -14 -49 -8 -5 6 80 15 95 3
4 -6 22 -20 38 -33 40 -65 110 -65 146 0 42 21 106 35 106 7 0 21 -12 31 -27z
m1490 2 c4 -14 4 -29 0 -32 -3 -4 -6 3 -6 15 0 11 -8 26 -17 31 -17 10 -17 10
-1 11 11 0 20 -10 24 -25z m82 -108 c2 -9 -1 -17 -7 -17 -6 0 -8 6 -5 14 3 8
-2 16 -13 20 -15 4 -15 5 2 3 11 -1 21 -10 23 -20z m853 -53 c34 -17 59 -56
59 -93 0 -24 -7 -34 -31 -46 -17 -9 -32 -15 -34 -13 -1 2 -10 17 -18 33 -10
19 -16 24 -17 13 0 -25 -21 -33 -35 -14 -11 14 -13 13 -18 -14 -5 -23 -12 -30
-31 -30 -29 0 -76 52 -76 85 0 28 56 85 84 85 12 0 28 5 36 10 16 10 39 6 81
-16z m-2467 -54 c25 -46 27 -55 19 -108 -9 -60 -5 -103 12 -104 6 -1 26 27 45
61 35 60 100 118 120 106 32 -20 -15 -124 -73 -163 -87 -58 -94 -59 -127 -27
-43 41 -72 108 -72 164 0 58 19 121 36 121 7 0 25 -23 40 -50z m1129 -25 c19
-19 29 -35 23 -35 -12 0 -46 32 -60 58 -12 21 1 13 37 -23z m84 -21 c-3 -3
-12 -4 -19 -1 -8 3 -5 6 6 6 11 1 17 -2 13 -5z m58 -44 c3 -5 1 -10 -4 -10 -6
0 -11 5 -11 10 0 6 2 10 4 10 3 0 8 -4 11 -10z m-1340 -112 c33 -39 44 -66 56
-143 18 -107 44 -107 74 0 13 44 27 70 56 98 50 46 69 48 69 5 0 -49 -36 -113
-96 -167 -54 -49 -55 -52 -52 -98 4 -58 17 -61 36 -8 30 87 47 117 81 147 l36
31 8 -29 c15 -50 -7 -106 -61 -156 -26 -24 -56 -49 -66 -55 -18 -10 -18 -12 2
-64 10 -29 24 -55 29 -56 6 -2 13 22 16 53 4 36 15 70 32 96 35 53 59 48 63
-11 5 -67 -5 -92 -55 -138 l-45 -43 31 -49 c18 -27 39 -55 47 -62 13 -10 13
-8 4 15 -19 51 -12 109 20 159 16 26 32 47 35 47 3 0 13 -16 21 -35 27 -66 14
-153 -33 -207 -13 -14 -10 -20 21 -51 19 -20 72 -63 116 -97 78 -60 81 -63 64
-81 -9 -10 -24 -19 -33 -19 -9 0 -59 43 -112 96 l-97 97 -69 1 c-79 1 -122 25
-143 78 -7 18 -24 48 -38 66 -13 18 -22 36 -19 38 6 6 89 -20 125 -38 13 -7
39 -34 58 -60 20 -26 42 -48 50 -48 11 0 9 8 -9 33 -13 17 -34 51 -47 73 -21
39 -25 42 -66 42 -74 2 -109 27 -163 120 -36 61 -36 62 -16 62 32 0 121 -54
163 -99 36 -38 42 -42 37 -21 -19 67 -33 87 -65 93 -17 4 -44 16 -60 27 -48
34 -115 190 -82 190 17 0 88 -57 124 -99 19 -22 38 -41 42 -41 20 0 -12 50
-56 89 -77 68 -108 153 -84 229 10 30 19 28 51 -10z m2571 -42 c45 -53 53 -95
24 -141 -15 -24 -29 -35 -46 -35 -21 0 -24 5 -24 38 -1 30 -3 34 -11 20 -16
-28 -39 -22 -39 10 -1 24 -2 25 -13 10 -7 -9 -17 -24 -22 -33 -10 -17 -13 -17
-42 -1 -62 32 -80 87 -40 123 38 35 79 51 130 50 44 -1 52 -5 83 -41z m-1541
-36 c3 -5 -1 -10 -10 -10 -9 0 -13 5 -10 10 3 6 8 10 10 10 2 0 7 -4 10 -10z
m-938 -32 c-3 -7 -5 -2 -5 12 0 14 2 19 5 13 2 -7 2 -19 0 -25z m1535 11 c27
-19 29 -26 25 -63 -3 -29 2 -51 16 -74 13 -22 16 -37 10 -43 -16 -16 -66 88
-59 122 4 22 1 31 -14 39 -11 6 -20 17 -20 25 0 20 6 19 42 -6z m-598 -28 c-2
-3 -12 3 -22 13 -16 17 -16 18 5 5 12 -7 20 -15 17 -18z m61 -1 c-3 -5 -16
-10 -28 -9 -21 0 -21 1 -2 9 28 12 37 12 30 0z m462 -57 c-3 -10 -5 -2 -5 17
0 19 2 27 5 18 2 -10 2 -26 0 -35z m-380 -1 c13 -8 20 -19 16 -25 -4 -6 -10
-5 -17 4 -6 8 -23 20 -38 28 -16 8 -28 18 -28 23 0 9 26 -3 67 -30z m413 -55
c22 -4 21 -5 -4 -4 -17 1 -31 9 -33 17 -3 10 -2 11 4 4 4 -7 19 -14 33 -17z
m-155 -27 c3 -5 2 -10 -4 -10 -5 0 -13 5 -16 10 -3 6 -2 10 4 10 5 0 13 -4 16
-10z m1035 -48 c62 -34 101 -151 64 -194 -25 -27 -72 -47 -96 -40 -17 4 -19
11 -15 39 5 29 4 33 -8 23 -21 -17 -36 -3 -29 27 l7 26 -32 -24 -32 -23 -24
29 c-43 52 -27 105 40 140 40 20 83 19 125 -3z m-1303 -13 c15 -5 40 -22 55
-36 l26 -25 39 30 c47 37 89 47 142 32 36 -9 51 -24 118 -113 42 -56 94 -123
115 -149 22 -26 37 -52 34 -57 -4 -5 -1 -13 5 -17 9 -5 7 -11 -6 -21 -14 -10
-66 -13 -212 -13 -135 0 -199 -4 -213 -12 -15 -10 -22 -10 -32 0 -9 9 -68 12
-212 12 -111 0 -207 4 -215 9 -21 14 -5 47 72 151 160 215 196 242 284 209z
m1238 -229 c-3 -5 -11 -10 -16 -10 -6 0 -7 5 -4 10 3 6 11 10 16 10 6 0 7 -4
4 -10z m-115 -25 c6 -15 17 -25 29 -25 29 0 41 -30 41 -98 0 -72 -21 -97 -81
-97 -57 0 -65 14 -39 66 l22 43 -25 -17 c-27 -18 -57 -23 -57 -9 0 4 7 18 16
30 18 26 15 27 -30 5 -42 -20 -66 -7 -66 36 1 56 50 88 138 90 37 1 44 -2 52
-24z m77 9 c-3 -3 -12 -4 -19 -1 -8 3 -5 6 6 6 11 1 17 -2 13 -5z m-267 -218
c-6 -16 -13 -26 -16 -23 -3 3 -1 14 5 25 6 12 12 38 13 59 l1 38 4 -36 c2 -19
-1 -48 -7 -63z m-712 13 c151 -16 282 -51 405 -109 30 -15 34 -35 12 -66 -14
-20 -11 -23 58 -58 81 -41 167 -101 167 -117 0 -6 -7 -8 -17 -5 -9 4 -43 9
-76 13 -60 6 -60 6 -54 -18 4 -13 10 -41 13 -63 l7 -38 -59 45 c-32 24 -86 59
-119 77 -33 18 -64 34 -68 37 -5 3 2 16 14 29 12 13 21 26 18 28 -10 9 -146
47 -222 60 -125 24 -249 27 -374 10 -113 -14 -273 -58 -273 -73 0 -5 7 -14 15
-21 25 -21 17 -36 -27 -56 -24 -10 -76 -43 -116 -71 -62 -45 -92 -62 -92 -50
0 1 7 24 15 51 8 27 13 52 10 54 -3 3 -37 1 -75 -4 -39 -5 -70 -6 -70 -2 0 13
102 85 168 117 34 17 62 35 62 39 0 5 -7 17 -15 28 -8 10 -15 24 -15 30 0 12
162 74 255 97 76 19 231 41 323 45 18 1 76 -3 130 -9z m802 -33 c0 -2 -9 -6
-20 -9 -11 -3 -18 -1 -14 4 5 9 34 13 34 5z m37 -2 c-3 -3 -12 -4 -19 -1 -8 3
-5 6 6 6 11 1 17 -2 13 -5z m-190 -51 c-20 -14 -37 -32 -37 -40 0 -15 16 -18
25 -4 3 5 24 24 48 43 23 18 36 25 28 15 -47 -59 -121 -91 -121 -52 0 12 67
63 85 64 5 1 -7 -11 -28 -26z m-692 -186 c32 -27 35 -27 41 -10 21 56 70 69
103 27 19 -24 25 -26 63 -20 24 4 53 9 66 13 13 3 22 1 22 -6 0 -20 -82 -62
-142 -73 -76 -13 -126 -46 -150 -99 -20 -46 -24 -99 -7 -99 6 0 28 -13 48 -28
20 -16 51 -34 69 -41 76 -31 12 -46 -198 -46 -165 0 -234 8 -227 28 2 7 17 16
33 22 16 5 33 15 37 22 4 7 13 13 20 13 19 1 54 34 61 58 5 14 -1 39 -15 70
-26 57 -71 85 -161 101 -62 11 -107 30 -128 56 -18 22 -11 25 40 15 73 -15 97
-12 103 10 5 21 47 36 73 26 9 -3 21 -20 27 -36 12 -33 24 -38 33 -15 3 8 26
26 50 40 24 14 44 30 44 36 0 10 26 -7 95 -64z"/>
<path d="M2354 15084 c3 -9 6 -22 6 -30 0 -8 7 -14 15 -14 14 0 14 3 0 30 -16
31 -32 42 -21 14z"/>
<path d="M3288 15025 c-20 -26 -23 -45 -9 -45 8 0 34 60 29 66 -2 1 -11 -8
-20 -21z"/>
<path d="M3371 14974 c-27 -44 -31 -64 -13 -64 4 0 20 21 36 46 20 32 26 48
18 56 -7 7 -19 -4 -41 -38z"/>
<path d="M2131 14972 c12 -34 24 -48 33 -34 3 4 -6 21 -19 38 l-25 29 11 -33z"/>
<path d="M3462 14917 c-24 -25 -28 -37 -12 -37 5 0 16 14 25 30 19 36 16 38
-13 7z"/>
<path d="M3565 14830 c-18 -20 -15 -38 4 -25 15 9 33 45 23 45 -5 0 -17 -9
-27 -20z"/>
<path d="M1822 14778 c6 -16 36 -34 44 -25 9 9 -15 37 -33 37 -8 0 -13 -5 -11
-12z"/>
<path d="M1789 14676 c25 -27 41 -33 41 -16 0 5 -15 17 -32 26 l-33 17 24 -27z"/>
<path d="M2497 13389 c-10 -6 -48 -16 -85 -24 -66 -12 -63 -13 143 -16 287 -5
647 3 578 14 -29 4 -71 14 -94 22 -63 23 -179 20 -232 -6 l-43 -21 -44 21
c-34 16 -62 21 -124 21 -45 0 -89 -5 -99 -11z"/>
<path d="M2798 13199 c-25 -14 -22 -36 7 -55 14 -9 22 -20 19 -26 -3 -5 -12
-4 -20 3 -20 16 -30 3 -14 -16 17 -20 49 -16 64 8 9 14 7 21 -8 32 -10 8 -24
16 -30 18 -6 2 -8 7 -4 11 3 4 16 3 27 -4 17 -9 21 -8 21 4 0 9 -9 20 -19 26
-23 12 -22 12 -43 -1z"/>
<path d="M2681 13169 c-6 -18 -11 -43 -11 -55 0 -25 14 -32 25 -13 4 6 19 7
36 4 34 -8 33 -11 13 48 -19 57 -46 63 -63 16z m39 -29 c0 -5 -4 -10 -10 -10
-5 0 -10 5 -10 10 0 6 5 10 10 10 6 0 10 -4 10 -10z"/>
<path d="M2606 13163 c7 -30 7 -30 5 -52 -1 -11 -5 -11 -20 3 -22 20 -40 4
-21 -19 16 -19 44 -19 59 -1 19 22 10 90 -12 94 -15 3 -17 -1 -11 -25z"/>
<path d="M2902 13145 c-12 -25 -22 -48 -22 -51 0 -3 16 -2 35 2 23 4 35 2 35
-5 0 -6 7 -11 16 -11 13 0 14 8 8 48 -8 57 -11 62 -33 62 -10 0 -25 -17 -39
-45z"/>
<path d="M2270 12960 c0 -5 4 -10 9 -10 6 0 13 5 16 10 3 6 -1 10 -9 10 -9 0
-16 -4 -16 -10z"/>
<path d="M3225 12960 c3 -5 13 -10 21 -10 8 0 12 5 9 10 -3 6 -13 10 -21 10
-8 0 -12 -4 -9 -10z"/>
<path d="M2718 12863 c7 -3 16 -2 19 1 4 3 -2 6 -13 5 -11 0 -14 -3 -6 -6z"/>
<path d="M2798 12863 c7 -3 16 -2 19 1 4 3 -2 6 -13 5 -11 0 -14 -3 -6 -6z"/>
<path d="M18913 14916 c-16 -14 -35 -42 -41 -64 -15 -50 -16 -229 -1 -273 37
-109 145 -116 185 -12 23 58 26 228 6 285 -16 44 -64 88 -97 88 -13 0 -37 -11
-52 -24z"/>
<path d="M8461 14779 c-12 -63 -25 -124 -28 -136 -5 -22 -2 -23 51 -23 l57 0
-6 34 c-4 18 -17 80 -29 136 l-21 103 -24 -114z"/>
<path d="M9160 14869 l0 -82 58 6 c65 7 92 30 92 79 0 47 -39 78 -100 78 l-50
0 0 -81z"/>
<path d="M12461 14779 c-12 -63 -25 -124 -28 -136 -5 -22 -2 -23 51 -23 l57 0
-6 34 c-4 18 -17 80 -29 136 l-21 103 -24 -114z"/>
<path d="M13940 14715 l0 -218 51 6 c28 4 57 11 65 17 25 22 38 85 38 190 0
160 -24 208 -109 217 l-45 6 0 -218z"/>
<path d="M14691 14779 c-12 -63 -25 -124 -28 -136 -5 -22 -2 -23 51 -23 l57 0
-6 34 c-4 18 -17 80 -29 136 l-21 103 -24 -114z"/>
<path d="M15831 14779 c-12 -63 -25 -124 -28 -136 -5 -22 -2 -23 51 -23 l57 0
-6 34 c-4 18 -17 80 -29 136 l-21 103 -24 -114z"/>
<path d="M20321 14779 c-12 -63 -25 -124 -28 -136 -5 -22 -2 -23 51 -23 l57 0
-6 34 c-4 18 -17 80 -29 136 l-21 103 -24 -114z"/>
<path d="M5411 13219 c-12 -63 -25 -124 -28 -136 -5 -22 -2 -23 51 -23 l57 0
-6 34 c-4 18 -17 80 -29 136 l-21 103 -24 -114z"/>
<path d="M5990 13309 l0 -82 58 6 c65 7 92 30 92 79 0 47 -39 78 -100 78 l-50
0 0 -81z"/>
<path d="M8331 13219 c-12 -63 -25 -124 -28 -136 -5 -22 -2 -23 51 -23 l57 0
-6 34 c-4 18 -17 80 -29 136 l-21 103 -24 -114z"/>
<path d="M9911 13219 c-12 -63 -25 -124 -28 -136 -5 -22 -2 -23 51 -23 l57 0
-6 34 c-4 18 -17 80 -29 136 l-21 103 -24 -114z"/>
<path d="M15961 13219 c-12 -63 -25 -124 -28 -136 -5 -22 -2 -23 51 -23 l57 0
-6 34 c-4 18 -17 80 -29 136 l-21 103 -24 -114z"/>
<path d="M16550 13155 l0 -218 51 6 c28 4 57 11 65 17 25 22 38 85 38 190 0
160 -24 208 -109 217 l-45 6 0 -218z"/>
<path d="M17181 13219 c-12 -63 -25 -124 -28 -136 -5 -22 -2 -23 51 -23 l57 0
-6 34 c-4 18 -17 80 -29 136 l-21 103 -24 -114z"/>
<path d="M18101 13219 c-12 -63 -25 -124 -28 -136 -5 -22 -2 -23 51 -23 l57 0
-6 34 c-4 18 -17 80 -29 136 l-21 103 -24 -114z"/>
<path d="M21741 13219 c-12 -63 -25 -124 -28 -136 -5 -22 -2 -23 51 -23 l57 0
-6 34 c-4 18 -17 80 -29 136 l-21 103 -24 -114z"/>
<path d="M22951 13219 c-12 -63 -25 -124 -28 -136 -5 -22 -2 -23 51 -23 l57 0
-6 34 c-4 18 -17 80 -29 136 l-21 103 -24 -114z"/>
<path d="M0 11710 l0 -100 13500 0 13500 0 0 100 0 100 -13500 0 -13500 0 0
-100z"/>
<path d="M0 1030 l0 -90 13500 0 13500 0 0 90 0 90 -13500 0 -13500 0 0 -90z"/>
<path d="M0 410 l0 -410 13500 0 13500 0 0 410 0 410 -13500 0 -13500 0 0
-410z"/>
</g>
</svg>
